<svg xmlns="http://www.w3.org/2000/svg" xmlns:xlink="http://www.w3.org/1999/xlink" width="500" zoomAndPan="magnify" viewBox="0 0 375 374.999991" height="500" preserveAspectRatio="xMidYMid meet" version="1.0"><defs><g/><clipPath id="47316809c9"><path d="M 67.375 162.585938 L 126.625 162.585938 L 126.625 233 L 67.375 233 Z M 67.375 162.585938 " clip-rule="nonzero"/></clipPath></defs><g clip-path="url(#47316809c9)"><path fill="#ffffff" d="M 75.6875 197.457031 L 106.25 224.699219 L 97.152344 232.960938 L 67.375 205.878906 L 67.375 162.628906 L 90.460938 183.550781 Z M 126.652344 162.628906 L 88.972656 196.800781 L 98.074219 204.914062 L 115.734375 188.691406 L 115.804688 200.136719 L 104.164062 210.34375 L 113.207031 218.40625 L 126.867188 205.960938 Z M 126.652344 162.628906 " fill-opacity="1" fill-rule="nonzero"/></g><g fill="#ffffff" fill-opacity="1"><g transform="translate(136.673697, 199.499987)"><g><path d="M 3.375 0 L 3.375 -15.46875 L 0.640625 -15.46875 L 0.640625 -19.328125 L 3.375 -19.328125 C 3.175781 -20.140625 3.078125 -20.898438 3.078125 -21.609375 C 3.078125 -22.835938 3.359375 -23.882812 3.921875 -24.75 C 4.484375 -25.625 5.285156 -26.285156 6.328125 -26.734375 C 7.378906 -27.191406 8.628906 -27.421875 10.078125 -27.421875 C 12.210938 -27.421875 13.804688 -27.054688 14.859375 -26.328125 L 13.71875 -22.75 L 13.359375 -22.6875 C 12.628906 -23.195312 11.703125 -23.453125 10.578125 -23.453125 C 9.703125 -23.453125 9.046875 -23.238281 8.609375 -22.8125 C 8.171875 -22.382812 7.953125 -21.804688 7.953125 -21.078125 C 7.953125 -20.753906 7.96875 -20.460938 8 -20.203125 C 8.039062 -19.941406 8.113281 -19.648438 8.21875 -19.328125 L 13.734375 -19.328125 L 13.734375 -15.46875 L 8.21875 -15.46875 L 8.21875 0 Z M 3.375 0 "/></g></g></g><g fill="#ffffff" fill-opacity="1"><g transform="translate(150.606672, 199.499987)"><g><path d="M 2.78125 0 L 2.78125 -19.296875 L 7.484375 -19.296875 L 7.484375 -16.4375 L 7.859375 -16.359375 C 8.328125 -17.429688 8.9375 -18.21875 9.6875 -18.71875 C 10.445312 -19.226562 11.375 -19.484375 12.46875 -19.484375 C 13.5625 -19.484375 14.394531 -19.296875 14.96875 -18.921875 L 14.140625 -14.734375 L 13.78125 -14.671875 C 13.457031 -14.796875 13.148438 -14.882812 12.859375 -14.9375 C 12.566406 -15 12.210938 -15.03125 11.796875 -15.03125 C 10.441406 -15.03125 9.40625 -14.554688 8.6875 -13.609375 C 7.976562 -12.660156 7.625 -11.132812 7.625 -9.03125 L 7.625 0 Z M 2.78125 0 "/></g></g></g><g fill="#ffffff" fill-opacity="1"><g transform="translate(165.747411, 199.499987)"><g><path d="M 19.078125 -8.5625 L 6.671875 -8.5625 C 6.804688 -6.875 7.28125 -5.648438 8.09375 -4.890625 C 8.914062 -4.128906 10.035156 -3.75 11.453125 -3.75 C 12.554688 -3.75 13.453125 -3.953125 14.140625 -4.359375 C 14.828125 -4.773438 15.378906 -5.40625 15.796875 -6.25 L 16.171875 -6.25 L 19.390625 -4.1875 C 18.765625 -2.832031 17.8125 -1.734375 16.53125 -0.890625 C 15.257812 -0.046875 13.566406 0.375 11.453125 0.375 C 9.453125 0.375 7.722656 -0.00390625 6.265625 -0.765625 C 4.816406 -1.523438 3.695312 -2.65625 2.90625 -4.15625 C 2.125 -5.65625 1.734375 -7.484375 1.734375 -9.640625 C 1.734375 -11.835938 2.144531 -13.6875 2.96875 -15.1875 C 3.800781 -16.695312 4.921875 -17.820312 6.328125 -18.5625 C 7.742188 -19.300781 9.332031 -19.671875 11.09375 -19.671875 C 13.820312 -19.671875 15.910156 -18.945312 17.359375 -17.5 C 18.816406 -16.050781 19.546875 -13.925781 19.546875 -11.125 C 19.546875 -10.113281 19.507812 -9.328125 19.4375 -8.765625 Z M 14.90625 -11.6875 C 14.863281 -13.15625 14.523438 -14.222656 13.890625 -14.890625 C 13.253906 -15.566406 12.320312 -15.90625 11.09375 -15.90625 C 8.644531 -15.90625 7.203125 -14.5 6.765625 -11.6875 Z M 14.90625 -11.6875 "/></g></g></g><g fill="#ffffff" fill-opacity="1"><g transform="translate(186.734398, 199.499987)"><g><path d="M 9.03125 0.375 C 7.707031 0.375 6.5 0.21875 5.40625 -0.09375 C 4.3125 -0.40625 3.375 -0.832031 2.59375 -1.375 C 1.820312 -1.914062 1.25 -2.535156 0.875 -3.234375 L 3.578125 -6.140625 L 3.9375 -6.140625 C 4.582031 -5.273438 5.34375 -4.625 6.21875 -4.1875 C 7.09375 -3.757812 8.039062 -3.546875 9.0625 -3.546875 C 10.007812 -3.546875 10.722656 -3.710938 11.203125 -4.046875 C 11.679688 -4.390625 11.921875 -4.878906 11.921875 -5.515625 C 11.921875 -6.003906 11.75 -6.414062 11.40625 -6.75 C 11.0625 -7.082031 10.503906 -7.34375 9.734375 -7.53125 L 7.171875 -8.140625 C 5.265625 -8.597656 3.867188 -9.296875 2.984375 -10.234375 C 2.097656 -11.171875 1.65625 -12.363281 1.65625 -13.8125 C 1.65625 -15.007812 1.960938 -16.050781 2.578125 -16.9375 C 3.191406 -17.820312 4.054688 -18.5 5.171875 -18.96875 C 6.285156 -19.4375 7.582031 -19.671875 9.0625 -19.671875 C 10.800781 -19.671875 12.242188 -19.421875 13.390625 -18.921875 C 14.535156 -18.421875 15.425781 -17.75 16.0625 -16.90625 L 13.46875 -14.109375 L 13.125 -14.109375 C 12.59375 -14.710938 11.988281 -15.15625 11.3125 -15.4375 C 10.644531 -15.71875 9.894531 -15.859375 9.0625 -15.859375 C 7.15625 -15.859375 6.203125 -15.265625 6.203125 -14.078125 C 6.203125 -13.566406 6.378906 -13.15625 6.734375 -12.84375 C 7.085938 -12.53125 7.710938 -12.273438 8.609375 -12.078125 L 10.984375 -11.546875 C 12.953125 -11.128906 14.382812 -10.457031 15.28125 -9.53125 C 16.1875 -8.601562 16.640625 -7.359375 16.640625 -5.796875 C 16.640625 -4.566406 16.335938 -3.484375 15.734375 -2.546875 C 15.128906 -1.617188 14.253906 -0.898438 13.109375 -0.390625 C 11.960938 0.117188 10.601562 0.375 9.03125 0.375 Z M 9.03125 0.375 "/></g></g></g><g fill="#ffffff" fill-opacity="1"><g transform="translate(204.535705, 199.499987)"><g><path d="M 2.78125 0 L 2.78125 -27.0625 L 7.625 -27.0625 L 7.625 -16.78125 L 8 -16.71875 C 8.644531 -17.65625 9.429688 -18.378906 10.359375 -18.890625 C 11.296875 -19.410156 12.421875 -19.671875 13.734375 -19.671875 C 17.992188 -19.671875 20.125 -17.253906 20.125 -12.421875 L 20.125 0 L 15.28125 0 L 15.28125 -11.8125 C 15.28125 -13.132812 15.015625 -14.09375 14.484375 -14.6875 C 13.960938 -15.28125 13.148438 -15.578125 12.046875 -15.578125 C 10.691406 -15.578125 9.613281 -15.125 8.8125 -14.21875 C 8.019531 -13.3125 7.625 -11.90625 7.625 -10 L 7.625 0 Z M 2.78125 0 "/></g></g></g><g fill="#ffffff" fill-opacity="1"><g transform="translate(227.15416, 199.499987)"><g><path d="M 3.359375 0 L 3.359375 -19.296875 L 6.078125 -19.296875 L 6.078125 -16.453125 L 6.4375 -16.375 C 7.09375 -17.46875 7.882812 -18.289062 8.8125 -18.84375 C 9.738281 -19.394531 10.847656 -19.671875 12.140625 -19.671875 C 13.640625 -19.671875 14.796875 -19.382812 15.609375 -18.8125 C 16.429688 -18.25 17.066406 -17.335938 17.515625 -16.078125 L 17.890625 -16.078125 C 18.554688 -17.265625 19.375 -18.160156 20.34375 -18.765625 C 21.320312 -19.367188 22.519531 -19.671875 23.9375 -19.671875 C 25.925781 -19.671875 27.40625 -19.132812 28.375 -18.0625 C 29.351562 -16.988281 29.84375 -15.351562 29.84375 -13.15625 L 29.84375 0 L 26.984375 0 L 26.984375 -13.09375 C 26.984375 -14.488281 26.6875 -15.519531 26.09375 -16.1875 C 25.507812 -16.851562 24.566406 -17.1875 23.265625 -17.1875 C 21.722656 -17.1875 20.460938 -16.625 19.484375 -15.5 C 18.515625 -14.382812 18.03125 -12.539062 18.03125 -9.96875 L 18.03125 0 L 15.171875 0 L 15.171875 -13.09375 C 15.171875 -14.488281 14.875 -15.519531 14.28125 -16.1875 C 13.695312 -16.851562 12.753906 -17.1875 11.453125 -17.1875 C 9.910156 -17.1875 8.648438 -16.644531 7.671875 -15.5625 C 6.703125 -14.476562 6.21875 -12.71875 6.21875 -10.28125 L 6.21875 0 Z M 3.359375 0 "/></g></g></g><g fill="#ffffff" fill-opacity="1"><g transform="translate(260.061187, 199.499987)"><g><path d="M 7.96875 0.375 C 6.0625 0.375 4.570312 -0.117188 3.5 -1.109375 C 2.4375 -2.109375 1.90625 -3.53125 1.90625 -5.375 C 1.90625 -6.519531 2.140625 -7.484375 2.609375 -8.265625 C 3.085938 -9.054688 3.820312 -9.695312 4.8125 -10.1875 C 5.800781 -10.6875 7.097656 -11.070312 8.703125 -11.34375 C 10.097656 -11.570312 11.160156 -11.832031 11.890625 -12.125 C 12.617188 -12.414062 13.109375 -12.742188 13.359375 -13.109375 C 13.609375 -13.472656 13.734375 -13.925781 13.734375 -14.46875 C 13.734375 -15.34375 13.429688 -16.015625 12.828125 -16.484375 C 12.234375 -16.953125 11.269531 -17.1875 9.9375 -17.1875 C 8.6875 -17.1875 7.613281 -16.941406 6.71875 -16.453125 C 5.832031 -15.972656 5.015625 -15.253906 4.265625 -14.296875 L 3.921875 -14.296875 L 2.515625 -16.28125 C 3.335938 -17.3125 4.378906 -18.132812 5.640625 -18.75 C 6.898438 -19.363281 8.332031 -19.671875 9.9375 -19.671875 C 12.21875 -19.671875 13.894531 -19.171875 14.96875 -18.171875 C 16.050781 -17.171875 16.59375 -15.789062 16.59375 -14.03125 L 16.59375 -3.796875 C 16.59375 -2.722656 17.046875 -2.1875 17.953125 -2.1875 C 18.253906 -2.1875 18.546875 -2.238281 18.828125 -2.34375 L 19.078125 -2.28125 L 19.40625 -0.296875 C 19.195312 -0.160156 18.921875 -0.0546875 18.578125 0.015625 C 18.234375 0.0976562 17.878906 0.140625 17.515625 0.140625 C 16.453125 0.140625 15.648438 -0.09375 15.109375 -0.5625 C 14.566406 -1.03125 14.222656 -1.71875 14.078125 -2.625 L 13.703125 -2.65625 C 13.148438 -1.644531 12.40625 -0.882812 11.46875 -0.375 C 10.539062 0.125 9.375 0.375 7.96875 0.375 Z M 8.59375 -1.90625 C 9.664062 -1.90625 10.59375 -2.148438 11.375 -2.640625 C 12.164062 -3.140625 12.769531 -3.835938 13.1875 -4.734375 C 13.613281 -5.640625 13.828125 -6.679688 13.828125 -7.859375 L 13.828125 -10.3125 L 13.5 -10.375 C 13.0625 -10.070312 12.53125 -9.816406 11.90625 -9.609375 C 11.289062 -9.410156 10.429688 -9.226562 9.328125 -9.0625 C 8.203125 -8.914062 7.3125 -8.679688 6.65625 -8.359375 C 6 -8.046875 5.53125 -7.644531 5.25 -7.15625 C 4.96875 -6.675781 4.828125 -6.082031 4.828125 -5.375 C 4.828125 -4.238281 5.160156 -3.375 5.828125 -2.78125 C 6.492188 -2.195312 7.414062 -1.90625 8.59375 -1.90625 Z M 8.59375 -1.90625 "/></g></g></g><g fill="#ffffff" fill-opacity="1"><g transform="translate(280.032956, 199.499987)"><g><path d="M 3.359375 0 L 3.359375 -19.296875 L 6.078125 -19.296875 L 6.078125 -16.28125 L 6.4375 -16.1875 C 7.332031 -18.382812 9.023438 -19.484375 11.515625 -19.484375 C 12.835938 -19.484375 13.820312 -19.242188 14.46875 -18.765625 L 13.734375 -16.34375 L 13.390625 -16.28125 C 12.660156 -16.632812 11.867188 -16.8125 11.015625 -16.8125 C 9.472656 -16.8125 8.285156 -16.234375 7.453125 -15.078125 C 6.628906 -13.929688 6.21875 -12.0625 6.21875 -9.46875 L 6.21875 0 Z M 3.359375 0 "/></g></g></g><g fill="#ffffff" fill-opacity="1"><g transform="translate(294.946141, 199.499987)"><g><path d="M 13.0625 -3.0625 L 13.96875 -1.015625 C 13.507812 -0.554688 12.910156 -0.210938 12.171875 0.015625 C 11.429688 0.253906 10.628906 0.375 9.765625 0.375 C 6.078125 0.375 4.234375 -1.492188 4.234375 -5.234375 L 4.234375 -16.984375 L 0.875 -16.984375 L 0.875 -19.328125 L 4.234375 -19.328125 L 4.234375 -23.40625 L 7.09375 -23.875 L 7.09375 -19.328125 L 13.296875 -19.328125 L 13.296875 -16.984375 L 7.09375 -16.984375 L 7.09375 -5.515625 C 7.09375 -3.296875 8.050781 -2.1875 9.96875 -2.1875 C 11.019531 -2.1875 11.925781 -2.476562 12.6875 -3.0625 Z M 13.0625 -3.0625 "/></g></g></g><g fill="#ffffff" fill-opacity="1"><g transform="translate(138.207344, 224.174589)"><g><path d="M 3.265625 -11.078125 L 3.265625 -6.28125 L 9.578125 -6.28125 L 9.578125 -5.171875 L 3.265625 -5.171875 L 3.265625 0 L 1.984375 0 L 1.984375 -12.1875 L 10.34375 -12.1875 L 10.34375 -11.078125 Z M 3.265625 -11.078125 "/></g></g></g><g fill="#ffffff" fill-opacity="1"><g transform="translate(149.215564, 224.174589)"><g><path d="M 2.90625 -7.359375 C 3.195312 -7.972656 3.628906 -8.4375 4.203125 -8.75 C 4.773438 -9.0625 5.484375 -9.21875 6.328125 -9.21875 L 6.328125 -8.03125 L 6.046875 -8.046875 C 5.078125 -8.046875 4.316406 -7.75 3.765625 -7.15625 C 3.222656 -6.5625 2.953125 -5.734375 2.953125 -4.671875 L 2.953125 0 L 1.71875 0 L 1.71875 -9.15625 L 2.90625 -9.15625 Z M 2.90625 -7.359375 "/></g></g></g><g fill="#ffffff" fill-opacity="1"><g transform="translate(156.18917, 224.174589)"><g><path d="M 9.6875 -4.1875 L 2.03125 -4.1875 C 2.101562 -3.238281 2.46875 -2.472656 3.125 -1.890625 C 3.789062 -1.304688 4.628906 -1.015625 5.640625 -1.015625 C 6.210938 -1.015625 6.734375 -1.113281 7.203125 -1.3125 C 7.679688 -1.519531 8.09375 -1.816406 8.4375 -2.203125 L 9.140625 -1.40625 C 8.734375 -0.914062 8.222656 -0.539062 7.609375 -0.28125 C 7.003906 -0.03125 6.335938 0.09375 5.609375 0.09375 C 4.660156 0.09375 3.820312 -0.101562 3.09375 -0.5 C 2.375 -0.90625 1.8125 -1.460938 1.40625 -2.171875 C 1 -2.878906 0.796875 -3.679688 0.796875 -4.578125 C 0.796875 -5.472656 0.988281 -6.273438 1.375 -6.984375 C 1.769531 -7.691406 2.304688 -8.238281 2.984375 -8.625 C 3.660156 -9.019531 4.425781 -9.21875 5.28125 -9.21875 C 6.125 -9.21875 6.878906 -9.019531 7.546875 -8.625 C 8.222656 -8.238281 8.753906 -7.691406 9.140625 -6.984375 C 9.523438 -6.285156 9.71875 -5.484375 9.71875 -4.578125 Z M 5.28125 -8.15625 C 4.394531 -8.15625 3.648438 -7.875 3.046875 -7.3125 C 2.453125 -6.75 2.113281 -6.019531 2.03125 -5.125 L 8.53125 -5.125 C 8.445312 -6.019531 8.101562 -6.75 7.5 -7.3125 C 6.90625 -7.875 6.164062 -8.15625 5.28125 -8.15625 Z M 5.28125 -8.15625 "/></g></g></g><g fill="#ffffff" fill-opacity="1"><g transform="translate(166.69306, 224.174589)"><g><path d="M 4.171875 0.09375 C 3.429688 0.09375 2.722656 -0.015625 2.046875 -0.234375 C 1.367188 -0.453125 0.835938 -0.722656 0.453125 -1.046875 L 1.015625 -2.015625 C 1.390625 -1.710938 1.867188 -1.460938 2.453125 -1.265625 C 3.035156 -1.078125 3.640625 -0.984375 4.265625 -0.984375 C 5.097656 -0.984375 5.710938 -1.113281 6.109375 -1.375 C 6.515625 -1.644531 6.71875 -2.015625 6.71875 -2.484375 C 6.71875 -2.828125 6.609375 -3.09375 6.390625 -3.28125 C 6.171875 -3.46875 5.890625 -3.609375 5.546875 -3.703125 C 5.210938 -3.804688 4.769531 -3.90625 4.21875 -4 C 3.46875 -4.144531 2.863281 -4.285156 2.40625 -4.421875 C 1.957031 -4.566406 1.570312 -4.8125 1.25 -5.15625 C 0.9375 -5.507812 0.78125 -5.992188 0.78125 -6.609375 C 0.78125 -7.378906 1.097656 -8.003906 1.734375 -8.484375 C 2.378906 -8.972656 3.269531 -9.21875 4.40625 -9.21875 C 5 -9.21875 5.585938 -9.140625 6.171875 -8.984375 C 6.765625 -8.828125 7.253906 -8.625 7.640625 -8.375 L 7.109375 -7.375 C 6.347656 -7.894531 5.445312 -8.15625 4.40625 -8.15625 C 3.613281 -8.15625 3.015625 -8.015625 2.609375 -7.734375 C 2.210938 -7.460938 2.015625 -7.101562 2.015625 -6.65625 C 2.015625 -6.300781 2.128906 -6.019531 2.359375 -5.8125 C 2.585938 -5.601562 2.867188 -5.445312 3.203125 -5.34375 C 3.535156 -5.25 4 -5.148438 4.59375 -5.046875 C 5.320312 -4.910156 5.90625 -4.769531 6.34375 -4.625 C 6.789062 -4.488281 7.171875 -4.25 7.484375 -3.90625 C 7.796875 -3.570312 7.953125 -3.113281 7.953125 -2.53125 C 7.953125 -1.726562 7.617188 -1.085938 6.953125 -0.609375 C 6.285156 -0.140625 5.359375 0.09375 4.171875 0.09375 Z M 4.171875 0.09375 "/></g></g></g><g fill="#ffffff" fill-opacity="1"><g transform="translate(175.197038, 224.174589)"><g><path d="M 6.390625 -9.21875 C 7.535156 -9.21875 8.445312 -8.882812 9.125 -8.21875 C 9.800781 -7.550781 10.140625 -6.582031 10.140625 -5.3125 L 10.140625 0 L 8.90625 0 L 8.90625 -5.1875 C 8.90625 -6.132812 8.664062 -6.859375 8.1875 -7.359375 C 7.71875 -7.859375 7.039062 -8.109375 6.15625 -8.109375 C 5.175781 -8.109375 4.394531 -7.816406 3.8125 -7.234375 C 3.238281 -6.648438 2.953125 -5.835938 2.953125 -4.796875 L 2.953125 0 L 1.71875 0 L 1.71875 -12.921875 L 2.953125 -12.921875 L 2.953125 -7.546875 C 3.296875 -8.085938 3.757812 -8.5 4.34375 -8.78125 C 4.9375 -9.070312 5.617188 -9.21875 6.390625 -9.21875 Z M 6.390625 -9.21875 "/></g></g></g><g fill="#ffffff" fill-opacity="1"><g transform="translate(186.970444, 224.174589)"><g><path d="M 6.390625 -9.21875 C 7.535156 -9.21875 8.445312 -8.882812 9.125 -8.21875 C 9.800781 -7.550781 10.140625 -6.582031 10.140625 -5.3125 L 10.140625 0 L 8.90625 0 L 8.90625 -5.1875 C 8.90625 -6.132812 8.664062 -6.859375 8.1875 -7.359375 C 7.71875 -7.859375 7.039062 -8.109375 6.15625 -8.109375 C 5.175781 -8.109375 4.394531 -7.816406 3.8125 -7.234375 C 3.238281 -6.648438 2.953125 -5.835938 2.953125 -4.796875 L 2.953125 0 L 1.71875 0 L 1.71875 -9.15625 L 2.90625 -9.15625 L 2.90625 -7.46875 C 3.238281 -8.019531 3.703125 -8.445312 4.296875 -8.75 C 4.898438 -9.0625 5.597656 -9.21875 6.390625 -9.21875 Z M 6.390625 -9.21875 "/></g></g></g><g fill="#ffffff" fill-opacity="1"><g transform="translate(198.743851, 224.174589)"><g><path d="M 9.6875 -4.1875 L 2.03125 -4.1875 C 2.101562 -3.238281 2.46875 -2.472656 3.125 -1.890625 C 3.789062 -1.304688 4.628906 -1.015625 5.640625 -1.015625 C 6.210938 -1.015625 6.734375 -1.113281 7.203125 -1.3125 C 7.679688 -1.519531 8.09375 -1.816406 8.4375 -2.203125 L 9.140625 -1.40625 C 8.734375 -0.914062 8.222656 -0.539062 7.609375 -0.28125 C 7.003906 -0.03125 6.335938 0.09375 5.609375 0.09375 C 4.660156 0.09375 3.820312 -0.101562 3.09375 -0.5 C 2.375 -0.90625 1.8125 -1.460938 1.40625 -2.171875 C 1 -2.878906 0.796875 -3.679688 0.796875 -4.578125 C 0.796875 -5.472656 0.988281 -6.273438 1.375 -6.984375 C 1.769531 -7.691406 2.304688 -8.238281 2.984375 -8.625 C 3.660156 -9.019531 4.425781 -9.21875 5.28125 -9.21875 C 6.125 -9.21875 6.878906 -9.019531 7.546875 -8.625 C 8.222656 -8.238281 8.753906 -7.691406 9.140625 -6.984375 C 9.523438 -6.285156 9.71875 -5.484375 9.71875 -4.578125 Z M 5.28125 -8.15625 C 4.394531 -8.15625 3.648438 -7.875 3.046875 -7.3125 C 2.453125 -6.75 2.113281 -6.019531 2.03125 -5.125 L 8.53125 -5.125 C 8.445312 -6.019531 8.101562 -6.75 7.5 -7.3125 C 6.90625 -7.875 6.164062 -8.15625 5.28125 -8.15625 Z M 5.28125 -8.15625 "/></g></g></g><g fill="#ffffff" fill-opacity="1"><g transform="translate(209.247741, 224.174589)"><g><path d="M 4.171875 0.09375 C 3.429688 0.09375 2.722656 -0.015625 2.046875 -0.234375 C 1.367188 -0.453125 0.835938 -0.722656 0.453125 -1.046875 L 1.015625 -2.015625 C 1.390625 -1.710938 1.867188 -1.460938 2.453125 -1.265625 C 3.035156 -1.078125 3.640625 -0.984375 4.265625 -0.984375 C 5.097656 -0.984375 5.710938 -1.113281 6.109375 -1.375 C 6.515625 -1.644531 6.71875 -2.015625 6.71875 -2.484375 C 6.71875 -2.828125 6.609375 -3.09375 6.390625 -3.28125 C 6.171875 -3.46875 5.890625 -3.609375 5.546875 -3.703125 C 5.210938 -3.804688 4.769531 -3.90625 4.21875 -4 C 3.46875 -4.144531 2.863281 -4.285156 2.40625 -4.421875 C 1.957031 -4.566406 1.570312 -4.8125 1.25 -5.15625 C 0.9375 -5.507812 0.78125 -5.992188 0.78125 -6.609375 C 0.78125 -7.378906 1.097656 -8.003906 1.734375 -8.484375 C 2.378906 -8.972656 3.269531 -9.21875 4.40625 -9.21875 C 5 -9.21875 5.585938 -9.140625 6.171875 -8.984375 C 6.765625 -8.828125 7.253906 -8.625 7.640625 -8.375 L 7.109375 -7.375 C 6.347656 -7.894531 5.445312 -8.15625 4.40625 -8.15625 C 3.613281 -8.15625 3.015625 -8.015625 2.609375 -7.734375 C 2.210938 -7.460938 2.015625 -7.101562 2.015625 -6.65625 C 2.015625 -6.300781 2.128906 -6.019531 2.359375 -5.8125 C 2.585938 -5.601562 2.867188 -5.445312 3.203125 -5.34375 C 3.535156 -5.25 4 -5.148438 4.59375 -5.046875 C 5.320312 -4.910156 5.90625 -4.769531 6.34375 -4.625 C 6.789062 -4.488281 7.171875 -4.25 7.484375 -3.90625 C 7.796875 -3.570312 7.953125 -3.113281 7.953125 -2.53125 C 7.953125 -1.726562 7.617188 -1.085938 6.953125 -0.609375 C 6.285156 -0.140625 5.359375 0.09375 4.171875 0.09375 Z M 4.171875 0.09375 "/></g></g></g><g fill="#ffffff" fill-opacity="1"><g transform="translate(217.751719, 224.174589)"><g><path d="M 4.171875 0.09375 C 3.429688 0.09375 2.722656 -0.015625 2.046875 -0.234375 C 1.367188 -0.453125 0.835938 -0.722656 0.453125 -1.046875 L 1.015625 -2.015625 C 1.390625 -1.710938 1.867188 -1.460938 2.453125 -1.265625 C 3.035156 -1.078125 3.640625 -0.984375 4.265625 -0.984375 C 5.097656 -0.984375 5.710938 -1.113281 6.109375 -1.375 C 6.515625 -1.644531 6.71875 -2.015625 6.71875 -2.484375 C 6.71875 -2.828125 6.609375 -3.09375 6.390625 -3.28125 C 6.171875 -3.46875 5.890625 -3.609375 5.546875 -3.703125 C 5.210938 -3.804688 4.769531 -3.90625 4.21875 -4 C 3.46875 -4.144531 2.863281 -4.285156 2.40625 -4.421875 C 1.957031 -4.566406 1.570312 -4.8125 1.25 -5.15625 C 0.9375 -5.507812 0.78125 -5.992188 0.78125 -6.609375 C 0.78125 -7.378906 1.097656 -8.003906 1.734375 -8.484375 C 2.378906 -8.972656 3.269531 -9.21875 4.40625 -9.21875 C 5 -9.21875 5.585938 -9.140625 6.171875 -8.984375 C 6.765625 -8.828125 7.253906 -8.625 7.640625 -8.375 L 7.109375 -7.375 C 6.347656 -7.894531 5.445312 -8.15625 4.40625 -8.15625 C 3.613281 -8.15625 3.015625 -8.015625 2.609375 -7.734375 C 2.210938 -7.460938 2.015625 -7.101562 2.015625 -6.65625 C 2.015625 -6.300781 2.128906 -6.019531 2.359375 -5.8125 C 2.585938 -5.601562 2.867188 -5.445312 3.203125 -5.34375 C 3.535156 -5.25 4 -5.148438 4.59375 -5.046875 C 5.320312 -4.910156 5.90625 -4.769531 6.34375 -4.625 C 6.789062 -4.488281 7.171875 -4.25 7.484375 -3.90625 C 7.796875 -3.570312 7.953125 -3.113281 7.953125 -2.53125 C 7.953125 -1.726562 7.617188 -1.085938 6.953125 -0.609375 C 6.285156 -0.140625 5.359375 0.09375 4.171875 0.09375 Z M 4.171875 0.09375 "/></g></g></g><g fill="#ffffff" fill-opacity="1"><g transform="translate(226.255697, 224.174589)"><g/></g></g><g fill="#ffffff" fill-opacity="1"><g transform="translate(230.812025, 224.174589)"><g><path d="M 10.078125 -12.921875 L 10.078125 0 L 8.890625 0 L 8.890625 -1.8125 C 8.523438 -1.195312 8.035156 -0.722656 7.421875 -0.390625 C 6.816406 -0.0664062 6.128906 0.09375 5.359375 0.09375 C 4.503906 0.09375 3.726562 -0.101562 3.03125 -0.5 C 2.332031 -0.894531 1.785156 -1.445312 1.390625 -2.15625 C 0.992188 -2.863281 0.796875 -3.671875 0.796875 -4.578125 C 0.796875 -5.484375 0.992188 -6.289062 1.390625 -7 C 1.785156 -7.707031 2.332031 -8.253906 3.03125 -8.640625 C 3.726562 -9.023438 4.503906 -9.21875 5.359375 -9.21875 C 6.097656 -9.21875 6.765625 -9.0625 7.359375 -8.75 C 7.960938 -8.445312 8.457031 -8.003906 8.84375 -7.421875 L 8.84375 -12.921875 Z M 5.46875 -1.015625 C 6.101562 -1.015625 6.675781 -1.160156 7.1875 -1.453125 C 7.707031 -1.742188 8.113281 -2.160156 8.40625 -2.703125 C 8.707031 -3.253906 8.859375 -3.878906 8.859375 -4.578125 C 8.859375 -5.273438 8.707031 -5.894531 8.40625 -6.4375 C 8.113281 -6.988281 7.707031 -7.410156 7.1875 -7.703125 C 6.675781 -7.992188 6.101562 -8.140625 5.46875 -8.140625 C 4.8125 -8.140625 4.222656 -7.992188 3.703125 -7.703125 C 3.191406 -7.410156 2.785156 -6.988281 2.484375 -6.4375 C 2.191406 -5.894531 2.046875 -5.273438 2.046875 -4.578125 C 2.046875 -3.878906 2.191406 -3.253906 2.484375 -2.703125 C 2.785156 -2.160156 3.191406 -1.742188 3.703125 -1.453125 C 4.222656 -1.160156 4.8125 -1.015625 5.46875 -1.015625 Z M 5.46875 -1.015625 "/></g></g></g><g fill="#ffffff" fill-opacity="1"><g transform="translate(242.602815, 224.174589)"><g><path d="M 9.6875 -4.1875 L 2.03125 -4.1875 C 2.101562 -3.238281 2.46875 -2.472656 3.125 -1.890625 C 3.789062 -1.304688 4.628906 -1.015625 5.640625 -1.015625 C 6.210938 -1.015625 6.734375 -1.113281 7.203125 -1.3125 C 7.679688 -1.519531 8.09375 -1.816406 8.4375 -2.203125 L 9.140625 -1.40625 C 8.734375 -0.914062 8.222656 -0.539062 7.609375 -0.28125 C 7.003906 -0.03125 6.335938 0.09375 5.609375 0.09375 C 4.660156 0.09375 3.820312 -0.101562 3.09375 -0.5 C 2.375 -0.90625 1.8125 -1.460938 1.40625 -2.171875 C 1 -2.878906 0.796875 -3.679688 0.796875 -4.578125 C 0.796875 -5.472656 0.988281 -6.273438 1.375 -6.984375 C 1.769531 -7.691406 2.304688 -8.238281 2.984375 -8.625 C 3.660156 -9.019531 4.425781 -9.21875 5.28125 -9.21875 C 6.125 -9.21875 6.878906 -9.019531 7.546875 -8.625 C 8.222656 -8.238281 8.753906 -7.691406 9.140625 -6.984375 C 9.523438 -6.285156 9.71875 -5.484375 9.71875 -4.578125 Z M 5.28125 -8.15625 C 4.394531 -8.15625 3.648438 -7.875 3.046875 -7.3125 C 2.453125 -6.75 2.113281 -6.019531 2.03125 -5.125 L 8.53125 -5.125 C 8.445312 -6.019531 8.101562 -6.75 7.5 -7.3125 C 6.90625 -7.875 6.164062 -8.15625 5.28125 -8.15625 Z M 5.28125 -8.15625 "/></g></g></g><g fill="#ffffff" fill-opacity="1"><g transform="translate(253.106705, 224.174589)"><g><path d="M 1.71875 -12.921875 L 2.953125 -12.921875 L 2.953125 0 L 1.71875 0 Z M 1.71875 -12.921875 "/></g></g></g><g fill="#ffffff" fill-opacity="1"><g transform="translate(257.784763, 224.174589)"><g><path d="M 1.71875 -9.15625 L 2.953125 -9.15625 L 2.953125 0 L 1.71875 0 Z M 2.359375 -11.15625 C 2.097656 -11.15625 1.878906 -11.238281 1.703125 -11.40625 C 1.535156 -11.582031 1.453125 -11.796875 1.453125 -12.046875 C 1.453125 -12.273438 1.535156 -12.476562 1.703125 -12.65625 C 1.878906 -12.832031 2.097656 -12.921875 2.359375 -12.921875 C 2.609375 -12.921875 2.820312 -12.832031 3 -12.65625 C 3.175781 -12.488281 3.265625 -12.289062 3.265625 -12.0625 C 3.265625 -11.800781 3.175781 -11.582031 3 -11.40625 C 2.820312 -11.238281 2.609375 -11.15625 2.359375 -11.15625 Z M 2.359375 -11.15625 "/></g></g></g><g fill="#ffffff" fill-opacity="1"><g transform="translate(262.462822, 224.174589)"><g><path d="M 9.421875 -9.15625 L 5.34375 0 L 4.078125 0 L 0.015625 -9.15625 L 1.3125 -9.15625 L 4.734375 -1.359375 L 8.203125 -9.15625 Z M 9.421875 -9.15625 "/></g></g></g><g fill="#ffffff" fill-opacity="1"><g transform="translate(271.888495, 224.174589)"><g><path d="M 9.6875 -4.1875 L 2.03125 -4.1875 C 2.101562 -3.238281 2.46875 -2.472656 3.125 -1.890625 C 3.789062 -1.304688 4.628906 -1.015625 5.640625 -1.015625 C 6.210938 -1.015625 6.734375 -1.113281 7.203125 -1.3125 C 7.679688 -1.519531 8.09375 -1.816406 8.4375 -2.203125 L 9.140625 -1.40625 C 8.734375 -0.914062 8.222656 -0.539062 7.609375 -0.28125 C 7.003906 -0.03125 6.335938 0.09375 5.609375 0.09375 C 4.660156 0.09375 3.820312 -0.101562 3.09375 -0.5 C 2.375 -0.90625 1.8125 -1.460938 1.40625 -2.171875 C 1 -2.878906 0.796875 -3.679688 0.796875 -4.578125 C 0.796875 -5.472656 0.988281 -6.273438 1.375 -6.984375 C 1.769531 -7.691406 2.304688 -8.238281 2.984375 -8.625 C 3.660156 -9.019531 4.425781 -9.21875 5.28125 -9.21875 C 6.125 -9.21875 6.878906 -9.019531 7.546875 -8.625 C 8.222656 -8.238281 8.753906 -7.691406 9.140625 -6.984375 C 9.523438 -6.285156 9.71875 -5.484375 9.71875 -4.578125 Z M 5.28125 -8.15625 C 4.394531 -8.15625 3.648438 -7.875 3.046875 -7.3125 C 2.453125 -6.75 2.113281 -6.019531 2.03125 -5.125 L 8.53125 -5.125 C 8.445312 -6.019531 8.101562 -6.75 7.5 -7.3125 C 6.90625 -7.875 6.164062 -8.15625 5.28125 -8.15625 Z M 5.28125 -8.15625 "/></g></g></g><g fill="#ffffff" fill-opacity="1"><g transform="translate(282.392386, 224.174589)"><g><path d="M 2.90625 -7.359375 C 3.195312 -7.972656 3.628906 -8.4375 4.203125 -8.75 C 4.773438 -9.0625 5.484375 -9.21875 6.328125 -9.21875 L 6.328125 -8.03125 L 6.046875 -8.046875 C 5.078125 -8.046875 4.316406 -7.75 3.765625 -7.15625 C 3.222656 -6.5625 2.953125 -5.734375 2.953125 -4.671875 L 2.953125 0 L 1.71875 0 L 1.71875 -9.15625 L 2.90625 -9.15625 Z M 2.90625 -7.359375 "/></g></g></g><g fill="#ffffff" fill-opacity="1"><g transform="translate(289.365991, 224.174589)"><g><path d="M 9.6875 -4.1875 L 2.03125 -4.1875 C 2.101562 -3.238281 2.46875 -2.472656 3.125 -1.890625 C 3.789062 -1.304688 4.628906 -1.015625 5.640625 -1.015625 C 6.210938 -1.015625 6.734375 -1.113281 7.203125 -1.3125 C 7.679688 -1.519531 8.09375 -1.816406 8.4375 -2.203125 L 9.140625 -1.40625 C 8.734375 -0.914062 8.222656 -0.539062 7.609375 -0.28125 C 7.003906 -0.03125 6.335938 0.09375 5.609375 0.09375 C 4.660156 0.09375 3.820312 -0.101562 3.09375 -0.5 C 2.375 -0.90625 1.8125 -1.460938 1.40625 -2.171875 C 1 -2.878906 0.796875 -3.679688 0.796875 -4.578125 C 0.796875 -5.472656 0.988281 -6.273438 1.375 -6.984375 C 1.769531 -7.691406 2.304688 -8.238281 2.984375 -8.625 C 3.660156 -9.019531 4.425781 -9.21875 5.28125 -9.21875 C 6.125 -9.21875 6.878906 -9.019531 7.546875 -8.625 C 8.222656 -8.238281 8.753906 -7.691406 9.140625 -6.984375 C 9.523438 -6.285156 9.71875 -5.484375 9.71875 -4.578125 Z M 5.28125 -8.15625 C 4.394531 -8.15625 3.648438 -7.875 3.046875 -7.3125 C 2.453125 -6.75 2.113281 -6.019531 2.03125 -5.125 L 8.53125 -5.125 C 8.445312 -6.019531 8.101562 -6.75 7.5 -7.3125 C 6.90625 -7.875 6.164062 -8.15625 5.28125 -8.15625 Z M 5.28125 -8.15625 "/></g></g></g><g fill="#ffffff" fill-opacity="1"><g transform="translate(299.869882, 224.174589)"><g><path d="M 10.078125 -12.921875 L 10.078125 0 L 8.890625 0 L 8.890625 -1.8125 C 8.523438 -1.195312 8.035156 -0.722656 7.421875 -0.390625 C 6.816406 -0.0664062 6.128906 0.09375 5.359375 0.09375 C 4.503906 0.09375 3.726562 -0.101562 3.03125 -0.5 C 2.332031 -0.894531 1.785156 -1.445312 1.390625 -2.15625 C 0.992188 -2.863281 0.796875 -3.671875 0.796875 -4.578125 C 0.796875 -5.484375 0.992188 -6.289062 1.390625 -7 C 1.785156 -7.707031 2.332031 -8.253906 3.03125 -8.640625 C 3.726562 -9.023438 4.503906 -9.21875 5.359375 -9.21875 C 6.097656 -9.21875 6.765625 -9.0625 7.359375 -8.75 C 7.960938 -8.445312 8.457031 -8.003906 8.84375 -7.421875 L 8.84375 -12.921875 Z M 5.46875 -1.015625 C 6.101562 -1.015625 6.675781 -1.160156 7.1875 -1.453125 C 7.707031 -1.742188 8.113281 -2.160156 8.40625 -2.703125 C 8.707031 -3.253906 8.859375 -3.878906 8.859375 -4.578125 C 8.859375 -5.273438 8.707031 -5.894531 8.40625 -6.4375 C 8.113281 -6.988281 7.707031 -7.410156 7.1875 -7.703125 C 6.675781 -7.992188 6.101562 -8.140625 5.46875 -8.140625 C 4.8125 -8.140625 4.222656 -7.992188 3.703125 -7.703125 C 3.191406 -7.410156 2.785156 -6.988281 2.484375 -6.4375 C 2.191406 -5.894531 2.046875 -5.273438 2.046875 -4.578125 C 2.046875 -3.878906 2.191406 -3.253906 2.484375 -2.703125 C 2.785156 -2.160156 3.191406 -1.742188 3.703125 -1.453125 C 4.222656 -1.160156 4.8125 -1.015625 5.46875 -1.015625 Z M 5.46875 -1.015625 "/></g></g></g><g fill="#ffffff" fill-opacity="1"><g transform="translate(311.660671, 224.174589)"><g><path d="M 1.84375 0.09375 C 1.59375 0.09375 1.375 0 1.1875 -0.1875 C 1.007812 -0.375 0.921875 -0.601562 0.921875 -0.875 C 0.921875 -1.132812 1.007812 -1.351562 1.1875 -1.53125 C 1.375 -1.71875 1.59375 -1.8125 1.84375 -1.8125 C 2.101562 -1.8125 2.320312 -1.71875 2.5 -1.53125 C 2.6875 -1.351562 2.78125 -1.132812 2.78125 -0.875 C 2.78125 -0.601562 2.6875 -0.375 2.5 -0.1875 C 2.320312 0 2.101562 0.09375 1.84375 0.09375 Z M 1.84375 0.09375 "/></g></g></g></svg>